<?xml version="1.0" standalone="no"?>
<!DOCTYPE svg PUBLIC "-//W3C//DTD SVG 20010904//EN"
 "http://www.w3.org/TR/2001/REC-SVG-20010904/DTD/svg10.dtd">
<svg version="1.0" xmlns="http://www.w3.org/2000/svg"
 width="500.000000pt" height="500.000000pt" viewBox="0 0 500.000000 500.000000"
 preserveAspectRatio="xMidYMid meet">
<metadata>
Created by potrace 1.14, written by Peter Selinger 2001-2017
</metadata>
<g transform="translate(0.000000,500.000000) scale(0.100000,-0.100000)"
fill="#000000" stroke="none">
<path d="M0 2500 l0 -2500 2500 0 2500 0 0 2500 0 2500 -2500 0 -2500 0 0
-2500z m2998 1825 c583 -126 1056 -496 1311 -1025 184 -381 235 -811 145
-1219 -127 -571 -501 -1044 -1026 -1296 -142 -68 -286 -116 -453 -152 -121
-25 -147 -27 -360 -27 -212 0 -240 2 -360 28 -315 66 -603 200 -830 386 -77
64 -235 223 -280 283 -24 33 -26 40 -14 52 12 12 24 2 84 -72 240 -294 650
-533 1051 -613 154 -31 436 -39 594 -16 665 96 1218 529 1466 1145 198 493
173 1035 -70 1519 -372 742 -1218 1145 -2024 966 -652 -145 -1150 -590 -1366
-1219 -25 -72 -35 -90 -49 -87 -22 4 -22 3 12 104 186 550 634 1001 1172 1181
308 104 693 127 997 62z m-413 -170 c52 -51 16 -145 -54 -145 -76 0 -113 98
-56 147 35 30 79 30 110 -2z m336 -15 c10 -6 19 -17 19 -25 0 -19 -16 -19 -24
0 -3 8 -16 15 -30 15 -50 0 -44 -38 9 -63 22 -11 35 -24 35 -36 0 -25 -26 -51
-50 -51 -23 0 -68 36 -57 46 4 4 13 0 20 -10 16 -22 60 -18 65 6 2 12 -9 25
-32 39 -70 41 -27 117 45 79z m-712 -62 c6 -26 11 -58 11 -72 0 -32 -32 -51
-60 -36 -21 11 -27 30 -10 30 6 0 10 -4 10 -10 0 -13 37 -13 45 0 3 5 -1 36
-10 69 -8 32 -15 65 -15 72 0 26 17 -6 29 -53z m1018 -33 c20 -8 34 -18 31
-21 -3 -2 -18 1 -32 8 -23 10 -29 9 -37 -3 -15 -24 -10 -47 11 -54 11 -3 20
-10 20 -15 0 -5 -12 -4 -26 2 -21 10 -27 9 -35 -3 -16 -25 -10 -45 17 -58 40
-18 23 -24 -19 -6 l-36 15 32 75 c17 41 32 75 34 75 2 0 20 -7 40 -15z m290
-156 c19 -12 32 -24 29 -26 -3 -3 -18 2 -32 12 -27 17 -28 17 -47 -6 -19 -23
-19 -24 2 -38 12 -7 21 -17 21 -22 0 -5 -11 -2 -24 6 -23 15 -25 15 -46 -15
-12 -17 -25 -29 -27 -26 -6 6 76 136 84 136 3 0 21 -10 40 -21z m386 -417
l-33 -27 21 -32 c24 -38 27 -39 57 -17 12 8 27 14 33 12 6 -2 -21 -25 -60 -51
-39 -26 -71 -43 -71 -38 0 5 12 18 27 29 l26 19 -22 37 -23 36 -34 -21 c-61
-37 -36 -3 29 40 71 46 98 54 50 13z m-685 -84 c54 -54 -53 -286 -291 -624
-57 -82 -109 -165 -115 -184 -11 -34 -42 -238 -42 -273 0 -9 4 -17 9 -17 4 0
53 42 107 93 167 155 256 227 281 227 31 0 7 -33 -74 -101 -159 -134 -310
-279 -323 -310 -17 -40 -7 -217 15 -279 19 -52 45 -234 38 -261 -9 -34 -41
-22 -52 19 -19 68 -31 136 -40 221 -12 114 -28 134 -123 155 -16 4 -28 12 -28
19 0 7 27 39 61 72 70 68 89 105 89 170 0 26 5 78 11 116 6 39 9 72 7 75 -3 2
-22 -21 -42 -51 -48 -69 -101 -117 -167 -150 -63 -32 -96 -27 -138 21 -38 43
-44 67 -39 148 l4 64 -51 -41 c-27 -22 -78 -68 -112 -101 -55 -53 -64 -66 -74
-115 -14 -70 -46 -127 -98 -174 -44 -40 -71 -46 -92 -21 -11 14 -9 24 15 70
15 29 52 85 82 124 30 40 54 80 54 90 0 26 -39 71 -77 86 -18 8 -67 17 -108
21 -89 7 -135 30 -135 69 0 22 -3 24 -22 18 -13 -4 -59 -10 -102 -13 l-79 -6
-18 -53 c-30 -89 -86 -195 -118 -226 -27 -26 -34 -28 -55 -18 -29 13 -50 71
-43 118 3 19 4 34 2 34 -10 0 -144 -241 -154 -275 -6 -22 -22 -101 -37 -175
-63 -328 -170 -577 -243 -568 -23 3 -26 8 -29 51 -6 85 60 278 192 570 36 78
70 169 76 202 20 115 23 332 6 437 -19 117 -19 108 -2 108 25 0 60 -259 52
-379 -6 -87 4 -109 29 -62 29 56 183 287 214 320 36 39 97 60 117 39 7 -7 17
-29 22 -48 l9 -35 61 2 c100 3 123 15 187 98 92 120 205 215 241 201 24 -9 16
-21 -46 -64 -107 -76 -249 -265 -217 -289 7 -5 49 -15 95 -21 102 -14 147 -35
181 -83 14 -21 30 -38 34 -39 5 0 43 32 86 71 43 38 101 88 130 109 29 22 66
61 84 87 40 60 93 89 131 72 51 -24 47 -86 -10 -149 -42 -47 -65 -50 -89 -14
-21 33 -32 23 -50 -47 -40 -150 7 -229 108 -180 71 34 131 94 201 199 48 73
69 116 85 176 69 252 215 542 326 645 46 42 72 50 93 29z m912 -267 c0 -11
-123 -121 -129 -115 -2 2 3 12 12 21 13 16 14 22 2 51 -9 21 -21 32 -34 32
-11 0 -23 5 -26 10 -4 6 27 10 84 10 50 0 91 -4 91 -9z m-3053 -123 c31 -109
39 -172 22 -166 -8 2 -25 48 -41 109 -30 121 -33 142 -15 137 6 -3 22 -39 34
-80z m3147 -194 c10 -26 7 -69 -6 -82 -17 -17 -48 -15 -70 5 -17 15 -20 15
-43 -7 -14 -13 -27 -21 -30 -18 -3 2 9 17 25 33 42 40 40 59 -5 51 -20 -4 -35
-3 -35 3 0 5 24 14 53 19 80 15 104 14 111 -4z m-16 -334 l42 0 -2 -42 c-1
-37 -2 -39 -5 -10 -2 17 -7 32 -11 32 -4 0 -17 3 -29 6 -20 6 -23 3 -23 -25 0
-17 -4 -31 -10 -31 -5 0 -10 14 -10 30 0 27 -3 30 -29 30 -27 0 -30 -4 -34
-37 -3 -34 -4 -33 -5 11 l-2 49 38 -7 c20 -3 56 -6 80 -6z m-70 -360 c-6 -22
-14 -40 -18 -40 -4 0 -3 18 2 40 6 22 14 40 18 40 4 0 3 -18 -2 -40z m-38
-311 c0 -17 -33 -68 -48 -74 -19 -7 -52 12 -52 31 0 11 -5 12 -17 6 -23 -12
-40 -5 -53 19 -8 14 -5 29 10 59 l20 40 70 -35 c39 -19 70 -40 70 -46z m-239
-245 c32 -26 59 -50 59 -54 0 -22 -44 -60 -70 -60 -31 0 -54 27 -44 53 4 10
-7 17 -38 23 l-43 8 50 4 c63 4 73 14 41 40 -25 19 -33 32 -20 32 3 0 32 -21
65 -46z m-223 -250 c69 -78 -49 -184 -123 -109 -29 28 -32 70 -9 103 33 48 92
50 132 6z m-329 -229 c67 -79 65 -97 -3 -21 l-52 59 9 -72 c6 -39 7 -74 4 -77
-3 -4 -19 9 -34 27 -62 74 -75 86 -69 64 12 -50 18 -140 8 -130 -6 6 -13 48
-17 95 l-6 85 51 -55 52 -55 -7 74 c-5 47 -4 72 3 70 5 -2 33 -31 61 -64z
m-389 -140 c7 -42 10 -79 6 -83 -4 -4 -31 19 -59 51 -29 32 -55 57 -58 57 -4
0 -3 -17 2 -37 9 -42 12 -99 4 -91 -9 9 -34 152 -28 161 3 5 32 -17 65 -50 67
-65 63 -68 42 37 -3 17 -1 30 4 30 5 0 15 -34 22 -75z"/>
<path d="M2476 4138 c-34 -48 -7 -108 47 -108 38 0 50 7 66 37 12 24 0 71 -22
85 -25 16 -76 8 -91 -14z"/>
<path d="M3138 3312 c-88 -90 -180 -257 -247 -446 -56 -159 -44 -153 82 37
108 163 175 285 207 375 31 84 17 95 -42 34z"/>
<path d="M2503 2680 c-47 -28 -60 -58 -36 -81 18 -19 19 -19 51 14 31 32 46
77 27 83 -5 2 -24 -5 -42 -16z"/>
<path d="M1442 2558 c-42 -70 -62 -130 -69 -205 -5 -53 -3 -63 10 -63 8 0 25
12 37 27 26 33 83 153 100 210 12 38 11 45 -5 63 -27 30 -38 25 -73 -32z"/>
<path d="M2030 2202 c-32 -47 -34 -52 -22 -52 9 0 62 73 62 85 0 15 -18 0 -40
-33z"/>
<path d="M2685 2131 c-46 -38 -49 -49 -16 -65 45 -24 51 -20 51 28 0 52 -8 60
-35 37z"/>
<path d="M1052 1870 c-37 -81 -132 -362 -132 -390 0 -87 116 177 155 352 9 43
15 83 12 90 -3 7 -18 -16 -35 -52z"/>
<path d="M4033 3112 c-12 -8 -7 -52 6 -52 4 0 22 13 41 30 l35 29 -35 0 c-19
1 -40 -3 -47 -7z"/>
<path d="M4148 2794 c-3 -3 -3 -17 1 -32 9 -32 54 -44 65 -16 11 30 -3 54 -33
54 -15 0 -30 -3 -33 -6z"/>
<path d="M3950 1830 c-7 -16 -10 -36 -6 -45 9 -26 44 -17 61 15 15 29 15 30
-14 44 -28 15 -29 15 -41 -14z"/>
<path d="M4020 1801 c-24 -46 4 -78 40 -46 25 23 25 41 1 55 -26 14 -29 13
-41 -9z"/>
<path d="M3835 1516 c-31 -47 9 -87 48 -47 l21 21 -26 26 -26 26 -17 -26z"/>
<path d="M3525 1300 c-48 -53 15 -142 77 -109 30 16 38 28 38 60 0 58 -77 91
-115 49z"/>
</g>
</svg>
